:SAMPLES-PER-SECOND 30
:FULLY-SPECIFIED
:DEGREES
269
root  27.4781 32.8948 36.0488 -158.652 -84.1834 174.771
RightUpLeg  -26.3005 3.29897 1.77384
RightLeg  25.8676 -1.16887 -0.481574
RightFoot  -6.68747 -0.0237857 -0.0295633
RightToes  -24.6822 -0.109068 -0.213361
Spine  9.05713 -2.29755 3.5266
Spine1  15.109 -4.36888 4.76648
HEad  34.8741 -3.07166 3.75964
LeftShoulder1  0 -2.42657e-020 -4.95415e-022
LeftArm  -17.5885 -15.338 -94.2059
LeftForeArm  68.6228 -13.1632 -2.29542
LeftHand  0.60934 -14.8832 -5.03485
RightShoulder  0 2.42657e-020 1.07489e-018
RightArm  -64.4444 18.4645 85.5123
RightForeArm  45.886 8.34072 1.46455
RightHand  -0.272061 21.0721 -1.09301
LeftUpLeg  -38.7483 6.27257 -4.10739
LeftLeg  40.9781 5.05486 3.83402
LeftFoot  -11.3032 -0.122798 -1.24084
LeftToes  -9.59677 1.18758e-006 1.19596e-007
270
root  26.2462 32.8524 36.0402 -163.031 -80.7116 179.868
RightUpLeg  -24.783 6.13231 1.42416
RightLeg  25.0583 -0.805792 -0.319771
RightFoot  -7.46351 -0.0288113 -0.0641865
RightToes  -26.1861 -0.118559 -0.224604
Spine  8.86882 -1.35376 3.69767
Spine1  15.1808 -1.99863 4.80536
HEad  34.1752 -2.13912 2.79656
LeftShoulder1  0 -2.42657e-020 -4.95415e-022
LeftArm  -15.6661 -12.2693 -93.8381
LeftForeArm  62.7617 -15.8481 -2.81346
LeftHand  0.368419 -14.0668 -3.35706
RightShoulder  0 2.42657e-020 1.07489e-018
RightArm  -64.1169 16.823 82.6239
RightForeArm  40.3321 10.8352 1.92255
RightHand  -0.0326591 21.875 0.201068
LeftUpLeg  -41.4825 5.90031 -3.48607
LeftLeg  35.7683 2.34763 1.46656
LeftFoot  -7.13698 -0.0194892 -0.312522
LeftToes  -16.9577 1.18758e-006 1.19596e-007
271
root  24.8885 32.8101 36.0478 -164.683 -77.9158 -177.871
RightUpLeg  -23.0328 7.68861 1.06494
RightLeg  24.2632 0.278688 0.100753
RightFoot  -7.49354 -0.0385658 -0.211374
RightToes  -26.3932 -0.119889 -0.226133
Spine  8.41261 -0.818028 3.82851
Spine1  14.7003 -0.650462 4.93371
HEad  34.0904 -1.39298 1.62575
LeftShoulder1  0 -2.42657e-020 -4.95415e-022
LeftArm  -16.4917 -9.25576 -93.1678
LeftForeArm  60.5239 -17.3708 -3.11043
LeftHand  0.206853 -13.5108 -2.11717
RightShoulder  0 2.42657e-020 1.07489e-018
RightArm  -62.7145 13.6832 80.3166
RightForeArm  33.5932 14.6596 2.63649
RightHand  0.409617 22.3164 2.44714
LeftUpLeg  -43.0243 6.1679 -2.8651
LeftLeg  31.5184 -1.70517 -0.904162
LeftFoot  -3.00315 0.00354016 0.135042
LeftToes  -27.33 1.18758e-006 1.19596e-007
272
root  23.322 32.8247 36.0809 -163.811 -75.8626 -179.018
RightUpLeg  -20.4144 7.46941 0.249784
RightLeg  24.0706 1.90981 0.705883
RightFoot  -7.89457 -0.0556724 -0.429295
RightToes  -29.5562 -0.140877 -0.248869
Spine  8.00866 -0.920253 3.64521
Spine1  14.201 -0.854222 4.80061
HEad  33.8047 0.392099 0.410336
LeftShoulder1  0 -2.42657e-020 -4.95415e-022
LeftArm  -19.9957 -6.43709 -92.1151
LeftForeArm  60.6668 -17.923 -3.21717
LeftHand  0.136783 -13.2481 -1.54856
RightShoulder  0 2.42657e-020 1.07489e-018
RightArm  -60.7249 9.28436 79.2419
RightForeArm  24.7147 20.2303 3.72122
RightHand  0.84241 22.1672 4.6697
LeftUpLeg  -42.366 7.2999 -3.74065
LeftLeg  29.7291 -2.7692 -1.35635
LeftFoot  0.204317 -6.64007e-005 0.0372325
LeftToes  -29.3326 1.18758e-006 1.19596e-007
273
root  21.5225 32.9582 36.1584 -162.838 -73.8488 179.072
RightUpLeg  -16.9927 5.3249 -0.949976
RightLeg  24.0898 4.94168 1.83223
RightFoot  -7.71742 -0.0797493 -0.804843
RightToes  -33.7364 -0.170479 -0.277078
Spine  7.68895 -1.33729 3.3338
Spine1  13.8716 -1.8714 4.58001
HEad  33.3662 2.87533 -1.20872
LeftShoulder1  0 -2.42657e-020 -4.95415e-022
LeftArm  -24.2434 -3.01689 -91.1018
LeftForeArm  60.8137 -18.5419 -3.33766
LeftHand  0.0898539 -13.0335 -1.15714
RightShoulder  0 2.42657e-020 1.07489e-018
RightArm  -55.6784 4.01454 77.7223
RightForeArm  20.4237 26.9398 5.13716
RightHand  1.15378 22.72 6.10991
LeftUpLeg  -39.063 8.12018 -4.81171
LeftLeg  30.2158 -3.54948 -1.77438
LeftFoot  1.69445 0.000919571 -0.0621931
LeftToes  -17.6024 1.18758e-006 1.19596e-007
274
root  19.5852 33.1887 36.1508 -165.037 -70.5612 -179.954
RightUpLeg  -14.6295 3.76666 -1.96601
RightLeg  26.4358 8.55345 3.56546
RightFoot  -5.05537 -0.0540365 -0.84659
RightToes  -41.0391 -0.226837 -0.320917
Spine  7.37385 -1.45074 2.95464
Spine1  13.6523 -2.30435 4.24094
HEad  33.0283 6.15033 -3.23796
LeftShoulder1  0 -2.42657e-020 -4.95415e-022
LeftArm  -26.7103 1.30126 -89.8996
LeftForeArm  58.6256 -19.4704 -3.52558
LeftHand  0.0296611 -12.9403 -0.631828
RightShoulder  0 2.42657e-020 1.07489e-018
RightArm  -50.8769 -0.744328 75.7836
RightForeArm  13.0029 33.6537 6.73796
RightHand  1.89066 25.2743 8.79036
LeftUpLeg  -33.7479 10.9612 -5.43019
LeftLeg  28.7986 -3.41504 -1.60312
LeftFoot  -0.665402 0.000437379 0.0753124
LeftToes  -4.41616 1.18758e-006 1.19596e-007
275
root  17.722 33.496 36.208 -166.512 -67.5328 -179.447
RightUpLeg  -16.4045 1.47832 -3.47383
RightLeg  35.0569 11.52 6.93284
RightFoot  0.715237 0.000948097 0.225433
RightToes  -51.9695 -0.320444 -0.372295
Spine  6.81147 -2.03701 2.5196
Spine1  12.961 -3.69659 3.67938
HEad  33.0468 9.90357 -5.14931
LeftShoulder1  0 -2.42657e-020 -4.95415e-022
LeftArm  -30.0141 6.52297 -89.0156
LeftForeArm  56.1382 -20.6081 -3.75816
LeftHand  -0.00310504 -12.5223 -0.341838
RightShoulder  0 2.42657e-020 1.07489e-018
RightArm  -44.1876 -4.17562 73.9511
RightForeArm  9.18894 42.4234 9.27532
RightHand  2.12057 23.455 10.5622
LeftUpLeg  -28.21 10.3411 -5.28109
LeftLeg  26.5072 -0.384853 -0.165198
LeftFoot  -2.30182 0.000714609 0.0355614
LeftToes  -4.24342 1.18758e-006 1.19596e-007
276
root  15.878 33.7445 36.0937 -167.059 -64.8963 179.722
RightUpLeg  -19.9455 -0.505336 -4.66639
RightLeg  46.0878 9.50473 8.54594
RightFoot  6.78307 -0.0733785 1.61553
RightToes  -51.0182 -0.311926 -0.368543
Spine  6.5555 -2.7514 1.9425
Spine1  12.7629 -5.03176 2.1328
HEad  32.7719 14.3248 -6.01595
LeftShoulder1  0 -2.42657e-020 -4.95415e-022
LeftArm  -33.7113 12.1214 -87.7854
LeftForeArm  53.9874 -22.4772 -4.14384
LeftHand  0.00341199 -12.1166 -0.402324
RightShoulder  0 2.42657e-020 1.07489e-018
RightArm  -39.9307 -5.81893 73.3065
RightForeArm  10.8972 52.18 13.1554
RightHand  2.38474 23.6275 11.7388
LeftUpLeg  -22.3305 9.73021 -5.48523
LeftLeg  24.0753 1.69303 0.626405
LeftFoot  -2.51215 -0.00173613 -0.07919
LeftToes  -7.17582 1.18758e-006 1.19596e-007
277
root  14.2744 33.9613 35.9029 -168.349 -63.322 -179.796
RightUpLeg  -23.2187 -1.50938 -4.24858
RightLeg  52.2454 6.04156 6.74843
RightFoot  4.98935 -0.0223118 0.889537
RightToes  -46.9743 -0.276455 -0.351036
Spine  6.51999 -3.60093 1.55999
Spine1  12.7626 -6.57814 0.959753
HEad  31.9529 18.0129 -7.40413
LeftShoulder1  0 -2.42657e-020 -4.95415e-022
LeftArm  -35.9396 18.0847 -86.5903
LeftForeArm  50.8082 -28.3472 -5.42474
LeftHand  0.0241347 -12.3343 -0.593642
RightShoulder  0 2.42657e-020 1.07489e-018
RightArm  -37.7299 -6.10371 73.33
RightForeArm  12.7235 60.6919 18.3724
RightHand  1.69457 22.169 9.00652
LeftUpLeg  -19.8674 11.1656 -5.34416
LeftLeg  25.9713 0.703123 0.285064
LeftFoot  -1.21633 -0.000128348 -0.0121003
LeftToes  -14.4161 1.18758e-006 1.19596e-007
278
root  12.9182 34.3117 35.7145 -169.127 -62.1516 -179.093
RightUpLeg  -25.84 -1.06705 -3.27907
RightLeg  50.5007 4.48372 4.71531
RightFoot  0.279359 0.000638459 0.115368
RightToes  -43.6084 -0.247932 -0.334585
Spine  6.62905 -4.13648 1.32634
Spine1  12.9717 -7.51647 0.11453
HEad  29.5152 21.5295 -9.55955
LeftShoulder1  0 -2.42657e-020 -4.95415e-022
LeftArm  -37.9537 21.0217 -85.7483
LeftForeArm  47.4684 -29.5845 -5.71735
LeftHand  -0.0263442 -11.6155 -0.111013
RightShoulder  0 2.42657e-020 1.07489e-018
RightArm  -37.4432 -6.43962 74.0305
RightForeArm  27.1306 68.9832 27.5001
RightHand  1.12475 23.0573 5.88175
LeftUpLeg  -21.4628 13.9945 -4.84946
LeftLeg  32.8283 -2.56573 -1.43416
LeftFoot  3.22253 0.00330754 -0.117593
LeftToes  -24.8829 1.18758e-006 1.19596e-007
279
root  11.7087 34.6434 35.4976 -169.969 -60.9627 -178.099
RightUpLeg  -27.084 1.06763 -2.50655
RightLeg  42.1748 4.35762 3.43164
RightFoot  -3.73008 -0.0227517 -0.32121
RightToes  -43.0898 -0.243624 -0.331902
Spine  7.17676 -3.99591 1.05724
Spine1  14.0303 -7.09442 -0.803141
HEad  25.731 23.5976 -11.4323
LeftShoulder1  0 -2.42657e-020 -4.95415e-022
LeftArm  -40.6717 20.8781 -84.9874
LeftForeArm  45.8647 -29.6192 -5.72814
LeftHand  0.00817416 -10.7085 -0.457464
RightShoulder  0 2.42657e-020 1.07489e-018
RightArm  -37.181 -7.2119 74.7011
RightForeArm  53.0815 76.895 49.8381
RightHand  0.165455 24.6685 1.12696
LeftUpLeg  -26.0497 17.16 -2.9475
LeftLeg  44.3506 -9.03253 -7.68821
LeftFoot  11.2074 0.216999 -2.2114
LeftToes  -32.9233 1.18758e-006 1.19596e-007
280
root  10.4546 34.6355 35.2757 -170.378 -59.634 -178.192
RightUpLeg  -27.1303 3.82917 -3.29914
RightLeg  32.5078 6.15649 3.36703
RightFoot  -7.07523 -0.0768851 -0.866148
RightToes  -43.3284 -0.245603 -0.333142
Spine  8.06026 -3.81751 0.511097
Spine1  15.6816 -6.47624 -2.44957
HEad  21.8051 25.1721 -13.0636
LeftShoulder1  0 -2.42657e-020 -4.95415e-022
LeftArm  -43.1516 20.9641 -84.1866
LeftForeArm  41.4835 -31.5597 -6.19965
LeftHand  0.0886337 -9.26692 -1.46463
RightShoulder  0 2.42657e-020 1.07489e-018
RightArm  -34.5238 -5.46709 74.0629
RightForeArm  98.1062 79.8794 87.7508
RightHand  -0.512447 25.0169 -1.94006
LeftUpLeg  -29.9913 16.8511 0.729987
LeftLeg  56.4502 -15.8135 -19.7365
LeftFoot  17.7923 1.25402 -7.99885
LeftToes  -39.1095 1.18758e-006 1.19596e-007
